<svg id="twitter" xmlns="http://www.w3.org/2000/svg" viewBox="0 0 90 90"><defs><style>.cls-1{fill:#999;}</style></defs><title>1467767903_smartphone-04</title><path class="cls-1" d="M50,5A45,45,0,0,0,15.33,78.69,26.11,26.11,0,0,0,29.75,73.3c-5.92-.53-9.86-3.49-12.05-9A13.66,13.66,0,0,0,23.49,64,12.84,12.84,0,0,1,13.3,51.25a12.74,12.74,0,0,0,5.57,1.5A13,13,0,0,1,15.1,35.61,36.89,36.89,0,0,0,41.57,49.07c0-1.33-.16-2.57-0.12-3.81a12.91,12.91,0,0,1,22-8.31,0.92,0.92,0,0,0,1,.17,27.07,27.07,0,0,0,7.12-2.76l0.38-.17a13.05,13.05,0,0,1-5.25,6.85l0,0.17C67.48,41.08,68.23,41,69,40.8s1.55-.39,2.31-0.63,1.49-.53,2.32-0.72A21,21,0,0,1,72,41.54c-1.41,1.42-2.9,2.76-4.34,4.15a1.08,1.08,0,0,0-.34.7,36.44,36.44,0,0,1-1.36,11,38.19,38.19,0,0,1-8,14.85A34.74,34.74,0,0,1,46.62,80.9a35.31,35.31,0,0,1-11.34,3.22,37.7,37.7,0,0,1-16.37-1.6A45,45,0,1,0,50,5Z" transform="translate(-5 -5)"/></svg>