<svg id="Layer_1" data-name="Layer 1" xmlns="http://www.w3.org/2000/svg" viewBox="0 0 70.18 16.92"><defs><style>.cls-1{fill:#231f20;}</style></defs><title>bike_logo4</title><path class="cls-1" d="M2.83,2.54h2V10A4.11,4.11,0,0,1,8.57,7.81a4.28,4.28,0,0,1,3.25,1.5,5.09,5.09,0,0,1,1.38,3.56,5.29,5.29,0,0,1-1.35,3.6A4.09,4.09,0,0,1,8.69,18a4.24,4.24,0,0,1-2.2-.62,4.48,4.48,0,0,1-1.64-1.69v2h-2V2.54ZM11,12.87a3.08,3.08,0,0,0-.95-2.27,3.14,3.14,0,0,0-2.3-.94,3.08,3.08,0,0,0-2.26,1,3.18,3.18,0,0,0,0,4.55,3.24,3.24,0,0,0,2.35.93,3,3,0,0,0,2.22-.95A3.13,3.13,0,0,0,11,12.87Z" transform="translate(-2.83 -1.68)"/><path class="cls-1" d="M16,8.08h2v9.67H16V8.08Z" transform="translate(-2.83 -1.68)"/><path class="cls-1" d="M20.9,2.54h2v9.79l4-4.24h2.64L25.4,12.54l4.22,5.2H27.1l-4.16-5.11v5.11h-2V2.54Z" transform="translate(-2.83 -1.68)"/><path class="cls-1" d="M40.71,13.3H32.46a3.25,3.25,0,0,0,1.22,2.17,3.49,3.49,0,0,0,2.08.69,3.61,3.61,0,0,0,2.91-1.44l1.49,1.13A5.38,5.38,0,0,1,35.67,18a4.86,4.86,0,0,1-3.61-1.48,5,5,0,0,1-1.45-3.67,4.92,4.92,0,0,1,1.47-3.56,5,5,0,0,1,7.17,0A5.37,5.37,0,0,1,40.71,13.3Zm-8-1.63h5.91a3.12,3.12,0,0,0-2.91-2A3.08,3.08,0,0,0,32.67,11.68Z" transform="translate(-2.83 -1.68)"/><path d="M67.75,8.08H67.59L66.36,2.26a0.73,0.73,0,0,0-.71-0.58H64.34a0.73,0.73,0,0,0,0,1.45h0.72L65.67,6H53a0.73,0.73,0,0,0-.7.52L51.8,8.11a5.26,5.26,0,1,0,5.79,5.71l5.28-2.44a5.26,5.26,0,1,0,4.88-3.3h0ZM66,7.48l0.17,0.79-8.65,4a5.27,5.27,0,0,0-4.2-4.09l0.2-.69H66ZM52.35,17.15a3.81,3.81,0,1,1,3.81-3.81,3.81,3.81,0,0,1-3.81,3.81h0Zm15.4,0a3.81,3.81,0,1,1,3.81-3.81,3.81,3.81,0,0,1-3.81,3.81h0Zm0,0" transform="translate(-2.83 -1.68)"/><path d="M54.57,3.77H52.28a0.73,0.73,0,1,0,0,1.45h2.29a0.73,0.73,0,1,0,0-1.45h0Zm0,0" transform="translate(-2.83 -1.68)"/></svg>